<svg xmlns="http://www.w3.org/2000/svg" width="64" height="64" viewBox="0 0 100 100">
  <circle cx="50" cy="55" r="35" fill="#f8f6f2"/>
  <polygon points="22,35 18,6 40,28" fill="#f8f6f2"/>
  <polygon points="78,35 82,6 60,28" fill="#f8f6f2"/>
  <polygon points="24,32 21,12 36,27" fill="#f0c8c8"/>
  <polygon points="76,32 79,12 64,27" fill="#f0c8c8"/>
  <ellipse cx="38" cy="48" rx="6" ry="6.5" fill="#d4a850"/>
  <ellipse cx="62" cy="48" rx="6" ry="6.5" fill="#d4a850"/>
  <ellipse cx="38" cy="48" rx="3" ry="5" fill="#1a1510"/>
  <ellipse cx="62" cy="48" rx="3" ry="5" fill="#1a1510"/>
  <circle cx="36" cy="46" r="1.5" fill="#fff" opacity="0.7"/>
  <circle cx="60" cy="46" r="1.5" fill="#fff" opacity="0.7"/>
  <ellipse cx="50" cy="59" rx="3" ry="2.2" fill="#f0b0b0"/>
  <path d="M44,63 Q50,69 56,63" fill="none" stroke="#d0a8a8" stroke-width="1.5"/>
</svg>
